<svg xmlns="http://www.w3.org/2000/svg" style="position:absolute;width:0;height:0;overflow:hidden" aria-hidden="true">
<defs>
  <symbol id="vn-sunburst" viewBox="0 0 100 100"><g fill="currentColor"><polygon points="61.99,49.52 100,50 61.99,50.48"/><polygon points="61.71,52.64 98.3,62.94 61.46,53.57"/><polygon points="60.62,55.58 93.3,75 60.14,56.41"/><polygon points="58.82,58.14 85.36,85.36 58.14,58.82"/><polygon points="56.41,60.14 75,93.3 55.58,60.62"/><polygon points="53.57,61.46 62.94,98.3 52.64,61.71"/><polygon points="50.48,61.99 50,100 49.52,61.99"/><polygon points="47.36,61.71 37.06,98.3 46.43,61.46"/><polygon points="44.42,60.62 25,93.3 43.59,60.14"/><polygon points="41.86,58.82 14.64,85.36 41.18,58.14"/><polygon points="39.86,56.41 6.7,75 39.38,55.58"/><polygon points="38.54,53.57 1.7,62.94 38.29,52.64"/><polygon points="38.01,50.48 0,50 38.01,49.52"/><polygon points="38.29,47.36 1.7,37.06 38.54,46.43"/><polygon points="39.38,44.42 6.7,25 39.86,43.59"/><polygon points="41.18,41.86 14.64,14.64 41.86,41.18"/><polygon points="43.59,39.86 25,6.7 44.42,39.38"/><polygon points="46.43,38.54 37.06,1.7 47.36,38.29"/><polygon points="49.52,38.01 50,0 50.48,38.01"/><polygon points="52.64,38.29 62.94,1.7 53.57,38.54"/><polygon points="55.58,39.38 75,6.7 56.41,39.86"/><polygon points="58.14,41.18 85.36,14.64 58.82,41.86"/><polygon points="60.14,43.59 93.3,25 60.62,44.42"/><polygon points="61.46,46.43 98.3,37.06 61.71,47.36"/></g></symbol>
  <symbol id="vn-corner" viewBox="0 0 100 100"><g fill="none" stroke="currentColor" stroke-width="2"><path d="M6 40 V6 H40"/><path d="M12 34 V12 H34"/><circle cx="18" cy="18" r="3" fill="currentColor"/></g></symbol>
  <symbol id="vn-ticket" viewBox="0 0 100 100"><g fill="none" stroke="currentColor" stroke-width="2"><path d="M6 20 Q6 6 20 6 H80 Q94 6 94 20 V80 Q94 94 80 94 H20 Q6 94 6 80 Z"/><path d="M6 50 H94" stroke-dasharray="2 4"/></g></symbol>
  <symbol id="vn-rule" viewBox="0 0 120 12"><g fill="currentColor" stroke="currentColor"><line x1="0" y1="6" x2="44" y2="6" stroke-width="1.5"/><circle cx="60" cy="6" r="3.5" fill="none" stroke-width="1.5"/><circle cx="60" cy="6" r="1.4"/><line x1="76" y1="6" x2="120" y2="6" stroke-width="1.5"/></g></symbol>
</defs>
</svg>
