<svg xmlns="http://www.w3.org/2000/svg" style="position:absolute;width:0;height:0;overflow:hidden" aria-hidden="true">
<defs>
  <symbol id="mc-card" viewBox="0 0 100 140"><g fill="none" stroke="currentColor" stroke-width="3"><rect x="4" y="4" width="92" height="132" rx="10"/><rect x="11" y="11" width="78" height="118" rx="6" stroke-width="1.5" opacity="0.6"/><path d="M50 4 l10 8 -10 8 -10 -8 Z" fill="currentColor" stroke="none"/></g></symbol>
  <symbol id="mc-medallion" viewBox="0 0 100 100"><g fill="none" stroke="currentColor" stroke-width="3"><circle cx="50" cy="50" r="44"/><circle cx="50" cy="50" r="34" stroke-width="1.5"/><g><line x1="94" y1="50" x2="90" y2="50" stroke-width="2"/><line x1="93.15" y1="58.58" x2="89.23" y2="57.8" stroke-width="2"/><line x1="90.65" y1="66.84" x2="86.96" y2="65.31" stroke-width="2"/><line x1="86.58" y1="74.45" x2="83.26" y2="72.22" stroke-width="2"/><line x1="81.11" y1="81.11" x2="78.28" y2="78.28" stroke-width="2"/><line x1="74.45" y1="86.58" x2="72.22" y2="83.26" stroke-width="2"/><line x1="66.84" y1="90.65" x2="65.31" y2="86.96" stroke-width="2"/><line x1="58.58" y1="93.15" x2="57.8" y2="89.23" stroke-width="2"/><line x1="50" y1="94" x2="50" y2="90" stroke-width="2"/><line x1="41.42" y1="93.15" x2="42.2" y2="89.23" stroke-width="2"/><line x1="33.16" y1="90.65" x2="34.69" y2="86.96" stroke-width="2"/><line x1="25.55" y1="86.58" x2="27.78" y2="83.26" stroke-width="2"/><line x1="18.89" y1="81.11" x2="21.72" y2="78.28" stroke-width="2"/><line x1="13.42" y1="74.45" x2="16.74" y2="72.22" stroke-width="2"/><line x1="9.35" y1="66.84" x2="13.04" y2="65.31" stroke-width="2"/><line x1="6.85" y1="58.58" x2="10.77" y2="57.8" stroke-width="2"/><line x1="6" y1="50" x2="10" y2="50" stroke-width="2"/><line x1="6.85" y1="41.42" x2="10.77" y2="42.2" stroke-width="2"/><line x1="9.35" y1="33.16" x2="13.04" y2="34.69" stroke-width="2"/><line x1="13.42" y1="25.55" x2="16.74" y2="27.78" stroke-width="2"/><line x1="18.89" y1="18.89" x2="21.72" y2="21.72" stroke-width="2"/><line x1="25.55" y1="13.42" x2="27.78" y2="16.74" stroke-width="2"/><line x1="33.16" y1="9.35" x2="34.69" y2="13.04" stroke-width="2"/><line x1="41.42" y1="6.85" x2="42.2" y2="10.77" stroke-width="2"/><line x1="50" y1="6" x2="50" y2="10" stroke-width="2"/><line x1="58.58" y1="6.85" x2="57.8" y2="10.77" stroke-width="2"/><line x1="66.84" y1="9.35" x2="65.31" y2="13.04" stroke-width="2"/><line x1="74.45" y1="13.42" x2="72.22" y2="16.74" stroke-width="2"/><line x1="81.11" y1="18.89" x2="78.28" y2="21.72" stroke-width="2"/><line x1="86.58" y1="25.55" x2="83.26" y2="27.78" stroke-width="2"/><line x1="90.65" y1="33.16" x2="86.96" y2="34.69" stroke-width="2"/><line x1="93.15" y1="41.42" x2="89.23" y2="42.2" stroke-width="2"/></g></g></symbol>
  <symbol id="mc-gem" viewBox="0 0 100 100"><g fill="none" stroke="currentColor" stroke-width="3" stroke-linejoin="round"><path d="M50 8 L86 38 L50 92 L14 38 Z"/><path d="M14 38 H86 M50 8 L36 38 L50 92 M50 8 L64 38 L50 92"/></g></symbol>
</defs>
</svg>
