<svg xmlns="http://www.w3.org/2000/svg" style="position:absolute;width:0;height:0;overflow:hidden" aria-hidden="true">
<defs>
<pattern id="jp-seigaiha" width="60" height="30" patternUnits="userSpaceOnUse"><circle cx="0" cy="30" r="22" fill="none" stroke="currentColor" stroke-width="2"/><circle cx="0" cy="30" r="16" fill="none" stroke="currentColor" stroke-width="2"/><circle cx="0" cy="30" r="10" fill="none" stroke="currentColor" stroke-width="2"/><circle cx="0" cy="30" r="4" fill="none" stroke="currentColor" stroke-width="2"/><circle cx="30" cy="30" r="22" fill="none" stroke="currentColor" stroke-width="2"/><circle cx="30" cy="30" r="16" fill="none" stroke="currentColor" stroke-width="2"/><circle cx="30" cy="30" r="10" fill="none" stroke="currentColor" stroke-width="2"/><circle cx="30" cy="30" r="4" fill="none" stroke="currentColor" stroke-width="2"/><circle cx="60" cy="30" r="22" fill="none" stroke="currentColor" stroke-width="2"/><circle cx="60" cy="30" r="16" fill="none" stroke="currentColor" stroke-width="2"/><circle cx="60" cy="30" r="10" fill="none" stroke="currentColor" stroke-width="2"/><circle cx="60" cy="30" r="4" fill="none" stroke="currentColor" stroke-width="2"/></pattern>
  <symbol id="jp-stamp" viewBox="0 0 100 100"><g fill="currentColor"><rect x="3" y="3" width="94" height="94" fill="none" stroke="currentColor" stroke-width="2"/><rect x="9" y="9" width="82" height="82" fill="none" stroke="currentColor" stroke-width="1" opacity="0.5"/><circle cx="5" cy="3" r="2.4"/><circle cx="5" cy="97" r="2.4"/><circle cx="15" cy="3" r="2.4"/><circle cx="15" cy="97" r="2.4"/><circle cx="25" cy="3" r="2.4"/><circle cx="25" cy="97" r="2.4"/><circle cx="35" cy="3" r="2.4"/><circle cx="35" cy="97" r="2.4"/><circle cx="45" cy="3" r="2.4"/><circle cx="45" cy="97" r="2.4"/><circle cx="55" cy="3" r="2.4"/><circle cx="55" cy="97" r="2.4"/><circle cx="65" cy="3" r="2.4"/><circle cx="65" cy="97" r="2.4"/><circle cx="75" cy="3" r="2.4"/><circle cx="75" cy="97" r="2.4"/><circle cx="85" cy="3" r="2.4"/><circle cx="85" cy="97" r="2.4"/><circle cx="95" cy="3" r="2.4"/><circle cx="95" cy="97" r="2.4"/><circle cx="3" cy="5" r="2.4"/><circle cx="97" cy="5" r="2.4"/><circle cx="3" cy="15" r="2.4"/><circle cx="97" cy="15" r="2.4"/><circle cx="3" cy="25" r="2.4"/><circle cx="97" cy="25" r="2.4"/><circle cx="3" cy="35" r="2.4"/><circle cx="97" cy="35" r="2.4"/><circle cx="3" cy="45" r="2.4"/><circle cx="97" cy="45" r="2.4"/><circle cx="3" cy="55" r="2.4"/><circle cx="97" cy="55" r="2.4"/><circle cx="3" cy="65" r="2.4"/><circle cx="97" cy="65" r="2.4"/><circle cx="3" cy="75" r="2.4"/><circle cx="97" cy="75" r="2.4"/><circle cx="3" cy="85" r="2.4"/><circle cx="97" cy="85" r="2.4"/><circle cx="3" cy="95" r="2.4"/><circle cx="97" cy="95" r="2.4"/></g></symbol>
  <symbol id="jp-postmark" viewBox="0 0 100 100"><g fill="none" stroke="currentColor" stroke-width="2.5"><circle cx="50" cy="50" r="40"/><circle cx="50" cy="50" r="30" stroke-dasharray="3 4"/><line x1="6" y1="50" x2="94" y2="50"/><line x1="6" y1="44" x2="94" y2="44" stroke-width="1"/><line x1="6" y1="56" x2="94" y2="56" stroke-width="1"/></g></symbol>
  <symbol id="jp-seal" viewBox="0 0 100 100"><g fill="none" stroke="currentColor" stroke-width="4"><rect x="10" y="10" width="80" height="80" rx="6"/></g></symbol>
</defs>
</svg>
